<?xml version="1.0"?>
<svg xmlns="http://www.w3.org/2000/svg" xmlns:xlink="http://www.w3.org/1999/xlink" xmlns:svgjs="http://svgjs.com/svgjs" version="1.1" width="512" height="512" x="0" y="0" viewBox="0 0 511.619 511.619" style="enable-background:new 0 0 512 512" xml:space="preserve" class=""><g><g xmlns="http://www.w3.org/2000/svg"><path d="m504.12 423.958c-.003 0-.006 0-.009 0l-28.68.033-.031-24.191c-.005-4.139-3.362-7.491-7.5-7.491-.003 0-.006 0-.009 0-4.143.005-7.496 3.367-7.491 7.509l.031 24.19-112.203.13-.111-96.11 77.654-.09c3.963-.004 7.686-1.551 10.484-4.355s4.336-6.531 4.331-10.493l-.09-78.359c-.005-3.962-1.552-7.686-4.356-10.483-2.8-2.793-6.519-4.331-10.475-4.331-.006 0-.012 0-.019 0l-77.655.089-.036-31.016 112.203-.128.201 176.954c.005 4.14 3.361 7.492 7.5 7.492h.009c4.143-.005 7.497-3.366 7.492-7.508l-.201-176.955 14.762-.017c11.396-.016 20.654-9.298 20.639-20.688l-.02-19.672c-.015-11.393-9.286-20.65-20.669-20.65-.009 0-.02 0-.028 0l-48.04.05c-4.142.004-7.497 3.366-7.492 7.508.004 4.14 3.361 7.492 7.5 7.492h.008l48.042-.05h.007c3.124 0 5.668 2.542 5.672 5.668l.02 19.672c.004 3.122-2.535 5.666-5.658 5.67l-141.964.161-.036-31.01 59.917-.071c4.142-.005 7.496-3.367 7.491-7.509-.005-4.139-3.362-7.491-7.5-7.491-.003 0-.006 0-.009 0l-59.916.071-.041-35.216c-.006-5.53-2.166-10.727-6.081-14.632-3.909-3.9-9.101-6.046-14.622-6.046-.008 0-.017 0-.024 0l-143.451.166c-5.53.006-10.727 2.166-14.632 6.081s-6.053 9.116-6.046 14.646l.041 35.217-141.967.165c-5.521.006-10.709 2.164-14.608 6.076-3.896 3.909-6.038 9.102-6.031 14.621l.022 19.675c.006 5.52 2.162 10.707 6.068 14.604 3.901 3.892 9.083 6.034 14.593 6.034h.026l14.847-.017v22.456c0 4.142 3.358 7.5 7.5 7.5s7.5-3.358 7.5-7.5v-22.474l112.119-.13.036 31.014-77.65.09c-3.963.004-7.686 1.551-10.484 4.355s-4.336 6.531-4.331 10.494l.09 78.359c.005 3.962 1.552 7.686 4.356 10.483 2.8 2.793 6.519 4.331 10.475 4.331h.019l77.651-.089.111 96.11-112.391.13v-178.672c0-4.142-3.358-7.5-7.5-7.5s-7.5 3.358-7.5 7.5v178.69l-28.488.033c-4.143.005-7.497 3.367-7.492 7.509.005 4.139 3.361 7.491 7.5 7.491h.009l496.619-.575c4.142-.005 7.496-3.367 7.491-7.509-.005-4.138-3.361-7.491-7.499-7.491zm-78.625-189.041.09 78.022-77.486.09-.09-78.022zm-404.38-60.546c-.002 0-.004 0-.007 0-1.511 0-2.931-.587-4-1.653-1.07-1.068-1.661-2.489-1.663-4.003l-.022-19.675c-.002-1.516.586-2.941 1.656-4.015 1.068-1.072 2.489-1.663 4.001-1.665l141.966-.164.036 31.011zm64.645 138.962-.09-78.022 77.482-.09.09 78.022zm92.227-220.372c-.002-1.523.59-2.956 1.666-4.034s2.507-1.673 4.03-1.675l143.451-.166h.007c3.141 0 5.699 2.554 5.703 5.696l.383 331.375-18.744.022-.153-132.263c-.007-6.323-2.435-12.271-6.835-16.749-4.434-4.511-10.334-6.994-16.618-6.994-.009 0-.019 0-.028 0l-70.459.082c-6.294.007-12.2 2.505-16.629 7.033-4.39 4.488-6.804 10.441-6.796 16.765l.153 132.263-18.748.022zm33.978 199.072c-.003-2.372.892-4.595 2.519-6.258 1.588-1.624 3.692-2.52 5.924-2.522l70.459-.082h.01c2.228 0 4.33.891 5.919 2.508 1.631 1.66 2.531 3.88 2.534 6.252l.153 132.263-87.365.101z" fill="#205ba7" data-original="#000000" style="" class=""/><path d="m207.012 200.158h.018l25.008-.029.029 25.008c.009 7.715 6.289 13.985 14 13.985h.018l19.004-.022c3.74-.004 7.255-1.464 9.896-4.112 2.642-2.647 4.094-6.166 4.089-9.906l-.029-25.008 25.007-.029c7.72-.008 13.994-6.296 13.986-14.018l-.022-19.005c-.004-3.74-1.465-7.254-4.113-9.896-2.644-2.638-6.154-4.089-9.888-4.089-.005 0-.012 0-.018 0l-25.008.029-.029-25.007c-.004-3.74-1.464-7.254-4.112-9.896-2.644-2.638-6.155-4.09-9.888-4.09-.005 0-.012 0-.018 0l-19.005.022c-3.74.004-7.254 1.465-9.896 4.113-2.641 2.647-4.093 6.166-4.089 9.905l.029 25.008-25.007.029c-3.74.004-7.255 1.464-9.896 4.112-2.642 2.648-4.094 6.166-4.089 9.906l.022 19.004c.004 3.74 1.464 7.255 4.112 9.896 2.645 2.639 6.156 4.09 9.889 4.09zm32.489-32.045c4.142-.005 7.496-3.367 7.491-7.509l-.037-31.509 17.007-.02.037 31.51c0 .259.014.514.04.766.388 3.779 3.58 6.725 7.46 6.725h.009l31.509-.037.02 17.007-31.51.037c-4.142.005-7.496 3.367-7.491 7.509l.037 31.509-17.008.02-.037-31.51c-.005-4.139-3.361-7.491-7.5-7.491-.002 0-.006 0-.009 0l-31.509.037-.02-17.007z" fill="#205ba7" data-original="#000000" style="" class=""/></g></g></svg>
