<?xml version="1.0"?>
<svg xmlns="http://www.w3.org/2000/svg" xmlns:xlink="http://www.w3.org/1999/xlink" xmlns:svgjs="http://svgjs.com/svgjs" version="1.1" width="512" height="512" x="0" y="0" viewBox="0 0 451.234 451.234" style="enable-background:new 0 0 512 512" xml:space="preserve"><g>
<g xmlns="http://www.w3.org/2000/svg">
	<path d="M447.221,254.061l-71.352-123.584c-8.551-14.81-23.065-21.323-33.765-15.146L332,121.164   c-4.783,2.761-6.422,8.877-3.66,13.66c2.761,4.782,8.876,6.424,13.66,3.66l9.223-5.325c1.392,0.517,4.631,2.649,7.326,7.317   l30.209,52.324l-52.511,30.318c-4.783,2.762-6.422,8.877-3.66,13.66c1.853,3.208,5.213,5.002,8.67,5.002   c1.696,0,3.416-0.433,4.99-1.342l52.511-30.318l8.941,15.487l-239.889,138.5l-8.941-15.487l157.836-91.127   c4.783-2.762,6.422-8.877,3.66-13.66c-2.762-4.782-8.877-6.421-13.66-3.66L148.87,331.301l-30.209-52.324   c-1.324-2.294-1.671-4.986-0.976-7.582c0.695-2.595,2.342-4.754,4.636-6.078l17.797-10.274c4.783-2.761,6.422-8.877,3.66-13.66   c-2.76-4.781-8.873-6.422-13.66-3.66l-17.797,10.274c-6.921,3.995-11.876,10.467-13.954,18.223s-1.022,15.838,2.974,22.758   l71.352,123.584c3.995,6.921,10.467,11.876,18.222,13.955c2.599,0.696,5.233,1.041,7.85,1.04c5.191,0,10.308-1.356,14.909-4.014   l222.568-128.5C450.566,286.772,455.492,268.387,447.221,254.061z M430.876,271.644c-0.695,2.595-2.342,4.754-4.636,6.078   l-222.568,128.5c-4.774,2.756-10.902,1.114-13.66-3.661l-12.201-21.132l239.889-138.5l12.201,21.132   C431.225,266.355,431.571,269.048,430.876,271.644z" fill="#205ba7" data-original="#000000" style=""/>
	<path d="M176.684,98.081h42.429c5.522,0,10-4.478,10-10s-4.478-10-10-10h-42.429c-5.522,0-10,4.478-10,10   S171.161,98.081,176.684,98.081z" fill="#205ba7" data-original="#000000" style=""/>
	<path d="M261.541,114.097h-84.857c-5.522,0-10,4.478-10,10s4.478,10,10,10h84.857c5.522,0,10-4.478,10-10   S267.063,114.097,261.541,114.097z" fill="#205ba7" data-original="#000000" style=""/>
	<path d="M261.541,151.98h-84.857c-5.522,0-10,4.478-10,10s4.478,10,10,10h84.857c5.522,0,10-4.478,10-10   S267.063,151.98,261.541,151.98z" fill="#205ba7" data-original="#000000" style=""/>
	<path d="M93.342,125.03c15.958,0,28.941-12.983,28.941-28.941S109.3,67.147,93.342,67.147S64.4,80.131,64.4,96.089   S77.384,125.03,93.342,125.03z M93.342,87.147c4.931,0,8.941,4.011,8.941,8.941s-4.011,8.941-8.941,8.941S84.4,101.02,84.4,96.089   S88.411,87.147,93.342,87.147z" fill="#205ba7" data-original="#000000" style=""/>
	<path d="M93.342,135.03c-21.526,0-40.519,14.495-46.186,35.249c-1.455,5.327,1.685,10.826,7.013,12.28   c0.882,0.241,1.768,0.356,2.64,0.356c4.396-0.001,8.427-2.923,9.641-7.369c3.299-12.08,14.357-20.517,26.893-20.517   c12.534,0,23.593,8.438,26.893,20.518c1.455,5.328,6.955,8.469,12.281,7.012c5.328-1.455,8.467-6.953,7.012-12.281   C133.859,149.524,114.867,135.03,93.342,135.03z" fill="#205ba7" data-original="#000000" style=""/>
	<path d="M317,196.382V53.679c0-16.542-13.458-30-30-30H30c-16.542,0-30,13.458-30,30v142.703c0,16.542,13.458,30,30,30h257   C303.542,226.382,317,212.924,317,196.382z M20,196.382V53.679c0-5.514,4.486-10,10-10h257c5.514,0,10,4.486,10,10v142.703   c0,5.514-4.486,10-10,10H30C24.486,206.382,20,201.896,20,196.382z" fill="#205ba7" data-original="#000000" style=""/>
</g>
<g xmlns="http://www.w3.org/2000/svg">
</g>
<g xmlns="http://www.w3.org/2000/svg">
</g>
<g xmlns="http://www.w3.org/2000/svg">
</g>
<g xmlns="http://www.w3.org/2000/svg">
</g>
<g xmlns="http://www.w3.org/2000/svg">
</g>
<g xmlns="http://www.w3.org/2000/svg">
</g>
<g xmlns="http://www.w3.org/2000/svg">
</g>
<g xmlns="http://www.w3.org/2000/svg">
</g>
<g xmlns="http://www.w3.org/2000/svg">
</g>
<g xmlns="http://www.w3.org/2000/svg">
</g>
<g xmlns="http://www.w3.org/2000/svg">
</g>
<g xmlns="http://www.w3.org/2000/svg">
</g>
<g xmlns="http://www.w3.org/2000/svg">
</g>
<g xmlns="http://www.w3.org/2000/svg">
</g>
<g xmlns="http://www.w3.org/2000/svg">
</g>
</g></svg>
