<?xml version="1.0"?>
<svg xmlns="http://www.w3.org/2000/svg" xmlns:xlink="http://www.w3.org/1999/xlink" xmlns:svgjs="http://svgjs.com/svgjs" version="1.1" width="512" height="512" x="0" y="0" viewBox="0 0 512 512.00009" style="enable-background:new 0 0 512 512" xml:space="preserve" class=""><g transform="matrix(1,0,0,1,70.00000000000003,0)">
<g xmlns="http://www.w3.org/2000/svg" id="surface1">
<path d="M 311.605469 51.980469 C 275.671875 17.0625 228.25 -1.367188 178.074219 0.078125 C 126.417969 1.566406 79.351562 24.46875 45.539062 64.5625 C 10.019531 106.679688 -5.867188 162.480469 1.953125 217.65625 C 10.992188 281.433594 45.222656 322.40625 81.464844 365.789062 C 112.71875 403.203125 145.039062 441.886719 165.789062 499.433594 C 168.5 506.949219 175.621094 512 183.507812 512 C 191.386719 512 198.5 506.953125 201.210938 499.4375 C 221.960938 441.890625 254.28125 403.203125 285.539062 365.789062 C 327.613281 315.425781 367.355469 267.855469 367.355469 183.855469 C 367.355469 133.742188 347.554688 86.90625 311.605469 51.980469 Z M 274.027344 356.171875 C 241.933594 394.585938 208.746094 434.308594 187.097656 494.351562 C 186.527344 495.933594 185.085938 497 183.507812 497 C 181.921875 497 180.472656 495.933594 179.898438 494.34375 C 158.253906 434.304688 125.066406 394.582031 92.976562 356.171875 C 56.628906 312.667969 25.242188 275.097656 16.804688 215.550781 C 9.582031 164.601562 24.238281 113.089844 57.007812 74.230469 C 88.03125 37.445312 131.179688 16.4375 178.507812 15.070312 C 180.191406 15.023438 181.863281 15 183.542969 15 C 227.757812 15 269.359375 31.84375 301.15625 62.734375 C 334.171875 94.816406 352.355469 137.828125 352.355469 183.855469 C 352.355469 262.414062 316.054688 305.863281 274.027344 356.171875 Z M 274.027344 356.171875 " style="" fill="#205ba7" data-original="#000000" class=""/>
<path d="M 290.664062 100.679688 C 288.121094 97.40625 283.410156 96.820312 280.140625 99.363281 C 276.871094 101.90625 276.285156 106.617188 278.828125 109.886719 C 316.09375 157.804688 311.824219 226.3125 268.890625 269.246094 C 225.957031 312.175781 157.449219 316.449219 109.53125 279.179688 C 106.261719 276.636719 101.550781 277.226562 99.007812 280.496094 C 96.464844 283.765625 97.054688 288.476562 100.324219 291.019531 C 124.878906 310.121094 154.242188 319.515625 183.503906 319.515625 C 218.4375 319.515625 253.226562 306.121094 279.496094 279.851562 C 327.765625 231.578125 332.566406 154.550781 290.664062 100.679688 Z M 290.664062 100.679688 " style="" fill="#205ba7" data-original="#000000" class=""/>
<path d="M 257.46875 88.53125 C 260.738281 91.074219 265.449219 90.484375 267.992188 87.214844 C 270.535156 83.945312 269.945312 79.234375 266.675781 76.691406 C 212.804688 34.785156 135.777344 39.589844 87.503906 87.859375 C 39.234375 136.132812 34.429688 213.160156 76.335938 267.03125 C 77.8125 268.933594 80.023438 269.929688 82.261719 269.929688 C 83.867188 269.929688 85.492188 269.414062 86.859375 268.347656 C 90.128906 265.804688 90.71875 261.09375 88.171875 257.824219 C 50.90625 209.910156 55.175781 141.402344 98.109375 98.46875 C 141.042969 55.53125 209.550781 51.261719 257.46875 88.53125 Z M 257.46875 88.53125 " style="" fill="#205ba7" data-original="#000000" class=""/>
<path d="M 223.582031 247.46875 C 227.722656 247.46875 231.082031 244.109375 231.082031 239.96875 L 231.082031 127.742188 C 231.082031 123.601562 227.722656 120.242188 223.582031 120.242188 C 219.4375 120.242188 216.082031 123.601562 216.082031 127.742188 L 216.082031 176.355469 L 150.917969 176.355469 L 150.917969 127.742188 C 150.917969 123.601562 147.5625 120.242188 143.417969 120.242188 C 139.277344 120.242188 135.917969 123.601562 135.917969 127.742188 L 135.917969 239.96875 C 135.917969 244.109375 139.277344 247.46875 143.417969 247.46875 C 147.5625 247.46875 150.917969 244.109375 150.917969 239.96875 L 150.917969 191.355469 L 216.082031 191.355469 L 216.082031 239.96875 C 216.082031 244.109375 219.4375 247.46875 223.582031 247.46875 Z M 223.582031 247.46875 " style="" fill="#205ba7" data-original="#000000" class=""/>
</g>
</g></svg>
