<?xml version="1.0"?>
<svg xmlns="http://www.w3.org/2000/svg" xmlns:xlink="http://www.w3.org/1999/xlink" xmlns:svgjs="http://svgjs.com/svgjs" version="1.1" width="512" height="512" x="0" y="0" viewBox="0 0 512.00024 512" style="enable-background:new 0 0 512 512" xml:space="preserve" class=""><g><path xmlns="http://www.w3.org/2000/svg" d="m320.148438 487.722656c-30.234376 24.964844-73.484376 28.011719-119.070313 12.710938-44.035156-14.78125-90.554687-46.855469-129.199219-92.746094-.289062-.304688-.558594-.625-.804687-.957031-38.507813-46.054688-62.023438-97.445313-68.921875-143.363281-7.183594-47.820313 3.511718-90.101563 33.789062-115.507813l.203125-.164063c7.507813-6.101562 18.84375-4.609374 31.144531 2.773438 9.382813 5.625 20.09375 14.929688 29.972657 26.613281.28125.296875.539062.605469.777343.921875 9.589844 11.515625 19.925782 27.105469 26.933594 40.710938 8.902344 17.28125 12.175782 33.097656 3.949219 40-9.347656 7.84375-14.640625 18.828125-15.636719 30.207031-.996094 11.390625 2.316406 23.144531 10.171875 32.507813l41.550781 49.515624c7.84375 9.351563 18.828126 14.644532 30.207032 15.640626 11.390625.996093 23.144531-2.316407 32.507812-10.171876 8.195313-6.878906 23.191406-.898437 38.65625 10.863282 21.542969 16.386718 47.300782 42.6875 57.246094 68.648437 5.011719 13.09375 4.636719 24.3125-2.246094 30.742188-.386718.390625-.796875.738281-1.230468 1.054687zm54.84375-64.875c-4.902344 2.488282-6.8125 8.570313-4.269532 13.585938 2.546875 5.011718 8.582032 7.0625 13.484375 4.574218 32.328125-16.398437 60.324219-40.121093 81.804688-68.988281 28.890625-38.824219 45.988281-86.914062 45.988281-138.96875 0-64.351562-26.085938-122.617187-68.261719-164.789062-42.171875-42.175781-100.4375-68.261719-164.789062-68.261719-44.765625 0-86.625 12.664062-122.195313 34.609375-25.066406 15.46875-47.046875 35.609375-64.664062 59.21875-7.480469 10.007813 8.671875 22.339844 16.28125 12.152344 16.089844-21.558594 36.171875-39.945313 59.0625-54.074219 32.378906-19.972656 70.574218-31.5 111.515625-31.5 58.722656 0 111.882812 23.800781 150.363281 62.28125s62.28125 91.644531 62.28125 150.363281c0 47.566407-15.585938 91.460938-41.921875 126.851563-19.59375 26.335937-45.152344 47.980468-74.679687 62.941406zm-32.234376 13.753906c5.519532 0 10 4.476563 10 10 0 5.523438-4.480468 10-10 10-5.523437 0-10-4.476562-10-10 0-5.523437 4.476563-10 10-10zm-263.339843-313.207031c-5.523438 0-10 4.476563-10 10 0 5.523438 4.476562 10 10 10 5.519531 0 10-4.476562 10-10 0-5.523437-4.480469-10-10-10zm339.058593 164.84375c0 5.632813-4.566406 10.203125-10.203124 10.203125-5.632813 0-10.203126-4.570312-10.203126-10.203125v-44.984375h-52.507812v-.042968c-2.289062.003906-4.59375-.769532-6.496094-2.347657-4.3125-3.585937-4.902344-9.992187-1.3125-14.308593l62.113282-74.539063c1.839843-2.671875 4.917968-4.421875 8.40625-4.421875 5.636718 0 10.203124 4.570312 10.203124 10.203125v65.050781h12.375c5.632813 0 10.203126 4.570313 10.203126 10.203125 0 5.636719-4.570313 10.203125-10.203126 10.203125h-12.375zm-20.40625-65.386719h-30.777343l30.777343-36.9375zm-147.664062-24.917968c0-8.265625 3.347656-15.75 8.765625-21.167969 5.414063-5.414063 12.898437-8.765625 21.164063-8.765625 8.269531 0 15.753906 3.351562 21.167968 8.765625 5.417969 5.417969 8.765625 12.902344 8.765625 21.167969 0 7.898437-3.019531 13.648437-8.0625 18.4375-6.015625 5.710937-15.179687 10.621094-25.769531 15.902344-25.636719 12.789062-45.226562 51.191406-45.28125 51.300781-2.574219 4.996093-.613281 11.136719 4.382812 13.710937 1.496094.769532 3.09375 1.136719 4.664063 1.132813v.023437h80.269531c5.632813 0 10.203125-4.566406 10.203125-10.203125s-4.570312-10.203125-10.203125-10.203125h-62.285156c6.707031-9.933594 16.5625-22.132812 27.339844-27.507812 12.054687-6.011719 22.636718-11.75 30.707031-19.410156 9.035156-8.578126 14.441406-18.917969 14.441406-33.183594 0-13.898438-5.632812-26.484375-14.746093-35.59375-9.109376-9.109375-21.691407-14.746094-35.59375-14.746094-13.898438 0-26.480469 5.636719-35.589844 14.746094-9.113282 9.109375-14.746094 21.695312-14.746094 35.59375 0 5.632812 4.566406 10.203125 10.203125 10.203125 5.632813 0 10.203125-4.570313 10.203125-10.203125zm-42.871094 283.210937c39.152344 13.144531 75.597656 11.027344 100.046875-9.460937l.046875-.039063c.09375-.078125-1.078125-3.304687-3.054687-8.464843-8.445313-22.054688-32.371094-45.953126-50.472657-59.722657-8.066406-6.136719-15.195312-9.886719-15.769531-9.40625-13.683593 11.476563-28.328125 14.308594-44.871093 12.859375-16.5625-1.449218-32.585938-9.195312-44.078126-22.890625l-41.550781-49.515625c-11.480469-13.683594-16.320312-30.792968-14.871093-47.335937 1.449218-16.558594 7.953124-31.515625 21.648437-43.007813-5.554687-17.21875-28.566406-48.761718-32.574219-53.535156-8.554687-10.191406-17.550781-18.121094-25.1875-22.699219-4.535156-2.71875-7.464844-4.398437-7.804687-4.445312-.132813.109375-.265625.21875-.402344.320312-24.128906 20.539063-32.429687 55.894531-26.324219 96.539063 6.398438 42.589844 28.492188 90.554687 64.773438 133.789062l.003906.003906c36.277344 43.234376 79.644531 73.316407 120.441406 87.011719zm0 0" fill-rule="evenodd" fill="#205ba7" data-original="#000000" style="" class=""/></g></svg>
